<svg width="36" height="36" viewBox="0 0 36 36" fill="none" xmlns="http://www.w3.org/2000/svg">
<path d="M10.81 36C9.81907 36 8.97079 35.6475 8.26514 34.9425C7.55948 34.2375 7.20666 33.39 7.20666 32.4C7.20666 31.41 7.55948 30.5625 8.26514 29.8575C8.97079 29.1525 9.81907 28.8 10.81 28.8C11.8009 28.8 12.6492 29.1525 13.3548 29.8575C14.0605 30.5625 14.4133 31.41 14.4133 32.4C14.4133 33.39 14.0605 34.2375 13.3548 34.9425C12.6492 35.6475 11.8009 36 10.81 36ZM28.8266 36C27.8357 36 26.9874 35.6475 26.2818 34.9425C25.5761 34.2375 25.2233 33.39 25.2233 32.4C25.2233 31.41 25.5761 30.5625 26.2818 29.8575C26.9874 29.1525 27.8357 28.8 28.8266 28.8C29.8175 28.8 30.6658 29.1525 31.3715 29.8575C32.0771 30.5625 32.43 31.41 32.43 32.4C32.43 33.39 32.0771 34.2375 31.3715 34.9425C30.6658 35.6475 29.8175 36 28.8266 36ZM9.27857 7.2L13.6026 16.2H26.2142L31.1688 7.2H9.27857ZM7.56699 3.6H34.1415C34.8322 3.6 35.3577 3.9075 35.718 4.5225C36.0783 5.1375 36.0933 5.76 35.763 6.39L29.3671 17.91C29.0368 18.51 28.5939 18.975 28.0384 19.305C27.4829 19.635 26.8748 19.8 26.2142 19.8H12.7918L10.81 23.4H32.43V27H10.81C9.45874 27 8.4378 26.4075 7.74716 25.2225C7.05652 24.0375 7.02649 22.86 7.65707 21.69L10.0893 17.28L3.60333 3.6H0V0H5.85541L7.56699 3.6Z" fill="black"/>
</svg>
