<svg width="272" height="72" viewBox="0 0 272 72" fill="none" xmlns="http://www.w3.org/2000/svg">
<g clip-path="url(#clip0_317_415)">
<path d="M62.7632 66.8945C62.7632 66.8945 62.7835 66.9149 62.8038 66.9149C62.8038 66.9149 62.7835 66.8945 62.7733 66.8945H62.7632Z" fill="#12102B"/>
<path d="M95.0499 57.0127L92.2279 71.0916H88.2426L89.3451 65.5996H83.9336L82.8311 71.0916H78.856L81.6679 57.0127H85.6532L84.5911 62.3024H90.0026L91.0647 57.0127H95.0499Z" fill="#12102B"/>
<path d="M110.354 57.0127H106.429L97.3965 71.0916H101.625L103.243 68.3405H109.221L109.787 71.0916H113.773L110.344 57.0127H110.354ZM104.973 65.4277L107.683 60.846L108.624 65.4277H104.973Z" fill="#12102B"/>
<path d="M131.919 58.2068C130.917 57.4179 129.532 57.0234 127.731 57.0234H121.713L118.901 71.1023H122.886L123.645 67.3702H125.637L127.751 71.1023H131.919L129.501 66.8948C129.724 66.8139 129.926 66.733 130.128 66.642C131.17 66.1565 131.979 65.4789 132.546 64.5989C133.112 63.719 133.396 62.6874 133.396 61.5141C133.396 60.1083 132.9 59.0058 131.909 58.2169L131.919 58.2068ZM128.652 63.6583C128.176 64.0629 127.499 64.255 126.619 64.255H124.262L125.081 60.1487H127.145C127.863 60.1487 128.409 60.2903 128.793 60.5634C129.178 60.8466 129.36 61.2815 129.36 61.8782C129.36 62.657 129.127 63.2538 128.652 63.6482V63.6583Z" fill="#12102B"/>
<path d="M147.213 63.4554L151.946 71.0916H147.486L144.249 66.0042L142.448 67.6326L141.761 71.0916H137.806L140.628 57.0127H144.573L143.43 62.7676L149.761 57.0127H154.445L147.213 63.4554Z" fill="#12102B"/>
<path d="M168.342 64.8211C168.595 65.2358 168.727 65.7516 168.727 66.3686C168.727 67.3699 168.443 68.2599 167.887 69.0083C167.321 69.7568 166.532 70.3434 165.52 70.7581C164.509 71.1829 163.305 71.3852 161.919 71.3852C161.12 71.3852 160.341 71.3245 159.613 71.193C158.875 71.0514 158.197 70.8693 157.6 70.6468C156.993 70.4243 156.478 70.1715 156.053 69.9085L157.621 66.9046C158.106 67.1979 158.602 67.4508 159.118 67.6632C159.644 67.8756 160.159 68.0273 160.706 68.1385C161.242 68.2397 161.778 68.2902 162.334 68.2902C162.83 68.2902 163.255 68.2397 163.609 68.1385C163.963 68.0273 164.236 67.8857 164.428 67.6935C164.62 67.5013 164.721 67.2788 164.721 67.026C164.721 66.7731 164.6 66.5607 164.347 66.3787C164.094 66.2067 163.77 66.055 163.376 65.9336C162.971 65.8123 162.526 65.701 162.031 65.5796C161.545 65.4583 161.06 65.3066 160.564 65.1245C160.068 64.9323 159.623 64.6997 159.219 64.4165C158.814 64.1333 158.49 63.7894 158.248 63.3647C158.005 62.9399 157.894 62.4139 157.894 61.7666C157.894 60.7653 158.167 59.8854 158.723 59.1268C159.269 58.3784 160.048 57.7918 161.06 57.3771C162.071 56.9624 163.275 56.75 164.671 56.75C165.662 56.75 166.592 56.8511 167.462 57.0635C168.332 57.2759 169.081 57.5692 169.718 57.9637L168.251 60.9373C167.715 60.5833 167.108 60.3102 166.451 60.1281C165.783 59.9461 165.106 59.855 164.408 59.855C163.861 59.855 163.406 59.9157 163.032 60.0371C162.648 60.1585 162.364 60.3304 162.162 60.5327C161.96 60.7451 161.859 60.9777 161.859 61.2306C161.859 61.5036 161.98 61.7262 162.233 61.8981C162.476 62.07 162.809 62.2218 163.214 62.333C163.619 62.4544 164.074 62.5859 164.559 62.7072C165.035 62.8286 165.53 62.9904 166.006 63.1624C166.501 63.3343 166.946 63.5568 167.351 63.8299C167.766 64.103 168.089 64.4367 168.352 64.8615L168.342 64.8211Z" fill="#12102B"/>
<path d="M73.4848 64.8214C73.7377 65.2361 73.8692 65.7519 73.8692 66.3689C73.8692 67.3702 73.5859 68.2603 73.0296 69.0087C72.4632 69.7571 71.6843 70.3438 70.6627 70.7584C69.6512 71.1832 68.4476 71.3855 67.0719 71.3855C66.2729 71.3855 65.494 71.3248 64.7657 71.1934C64.2195 71.0922 63.7037 70.9708 63.2283 70.8191C62.7326 70.9708 62.1662 70.9203 61.6706 70.6674C60.9727 70.3033 60.1635 70.3033 59.2329 70.2426C58.1203 70.1718 56.9975 70.0909 55.8849 69.9999C53.609 69.8279 51.3331 69.6257 49.0674 69.4031C48.0155 69.2919 47.1152 68.594 47.1152 67.4511C47.1152 66.47 48.0155 65.3878 49.0674 65.4991C51.5152 65.7418 53.963 65.9542 56.4209 66.1464C58.4945 66.2981 60.7805 66.197 62.7731 66.9151C62.7731 66.9151 62.7933 66.9151 62.8136 66.9353C62.8136 66.9353 62.8338 66.9353 62.8439 66.9353C63.117 67.0364 63.38 67.1578 63.643 67.2893C63.7644 67.3601 63.8857 67.441 63.9869 67.532C64.0779 67.5826 64.1791 67.6129 64.2802 67.6534C64.7961 67.8658 65.3221 68.0175 65.8582 68.1288C66.3942 68.2299 66.9405 68.2805 67.4867 68.2805C67.9823 68.2805 68.4071 68.2299 68.7611 68.1288C69.1152 68.0175 69.3883 67.8759 69.5906 67.6837C69.7827 67.4916 69.8839 67.2691 69.8839 67.0162C69.8839 66.7634 69.7625 66.551 69.5096 66.3689C69.2568 66.197 68.9432 66.0453 68.5386 65.9239C68.1441 65.8025 67.689 65.6913 67.2034 65.5699C66.7078 65.4485 66.2223 65.2968 65.7267 65.1147C65.2412 64.9226 64.786 64.69 64.3814 64.4068C63.9667 64.1236 63.643 63.7797 63.4002 63.3549C63.1676 62.9301 63.0462 62.4042 63.0462 61.7569C63.0462 60.7556 63.3193 59.8756 63.8756 59.1171C64.4218 58.3686 65.2007 57.782 66.2122 57.3673C67.2237 56.9526 68.4273 56.7402 69.8232 56.7402C70.8145 56.7402 71.745 56.8414 72.625 57.0538C73.4949 57.2662 74.2434 57.5595 74.8705 57.9539L73.4039 60.9275C72.8678 60.5735 72.271 60.3004 71.6034 60.1184C70.9358 59.9363 70.2581 59.8453 69.5703 59.8453C69.014 59.8453 68.5588 59.906 68.1846 60.0273C67.8103 60.1487 67.517 60.3206 67.3147 60.5229C67.1124 60.7353 67.0113 60.9679 67.0113 61.2208C67.0113 61.4939 67.1326 61.7164 67.3855 61.8883C67.6384 62.0603 67.9621 62.212 68.3667 62.3232C68.7814 62.4446 69.2264 62.5761 69.7119 62.6975C70.1975 62.8188 70.683 62.9807 71.1685 63.1526C71.654 63.3245 72.1092 63.5471 72.5138 63.8201C72.9285 64.0932 73.2522 64.427 73.5151 64.8518L73.4848 64.8214Z" fill="#12102B"/>
<path d="M48.6424 47.5366C48.6424 47.5366 50.3215 47.7692 52.4254 48.2143C52.4456 48.2143 54.8934 49.0234 56.9063 47.8097C57.9279 47.2029 58.6663 46.1813 59.1012 44.7755C59.3035 44.3203 59.4249 43.8146 59.4552 43.2381C59.4552 43.1167 59.4552 40.8411 56.5725 36.6841C56.5421 36.6437 53.9021 32.8003 54.9338 27.0049C55.6014 25.8822 58.3932 21.3814 63.2078 16.4761C68.2653 11.3078 76.6404 4.64253 87.868 2.09376C87.1296 3.04449 84.176 7.22163 83.8625 12.4608H86.108C86.3507 8.59716 88.3333 4.58184 92.0657 0.485614C92.1061 0.435043 92.1466 0.404701 92.187 0.35413L92.3084 0.232761L92.1365 0.192304C92.1365 0.192304 92.1162 0.192304 92.0758 0.192304C91.6206 0.121505 88.7884 -0.252718 84.0142 1.12281C79.24 2.49833 71.4818 5.97759 61.6704 14.6758C61.549 14.7668 49.4212 23.6066 37.516 24.5269H37.3845C25.2668 25.417 6.05861 30.5347 0.272885 32.9722L0.161621 33.0228L0.222311 33.1138C0.283 33.2049 6.21034 42.1154 17.5997 51.2182C17.6301 51.2485 17.6604 51.2687 17.6908 51.2991L17.7717 51.3497L17.8223 51.289C17.8223 51.289 20.7758 48.103 25.6916 45.8071C30.1321 43.7438 37.1215 41.9941 45.4461 45.2104C42.796 45.1497 31.7909 45.5542 24.225 55.9819L24.1744 56.0628L24.2553 56.1134C24.3666 56.1943 42.7555 65.8331 50.6552 71.3251H66.4244C54.7012 67.9874 39.0737 62.6573 28.2608 55.6178C28.8374 54.7379 34.6636 46.4544 48.6626 47.5569L48.6424 47.5366ZM27.1077 42.7526C21.8682 44.6339 18.3685 47.5366 17.9133 47.9412C13.2807 45.1699 4.93586 35.339 4.03563 34.2669C5.07747 33.8117 13.5942 30.3021 38.396 26.7015C38.5174 26.6812 49.8157 25.0832 53.4874 26.216C52.0814 34.2163 55.2373 38.4238 55.2778 38.4743C56.1375 39.4554 57.3715 41.8525 57.4727 42.0446C57.7863 43.7742 57.5233 44.9777 56.6837 45.6048C54.4787 47.2635 48.9661 44.5327 48.9155 44.5024C40.2773 39.6982 32.2866 40.9017 27.1179 42.7425L27.1077 42.7526Z" fill="#12102B"/>
<path d="M28.3824 55.5769C29.2321 54.3227 35.0583 46.5753 48.6325 47.6373C48.6426 47.6373 50.261 47.8598 52.3952 48.3048C52.4155 48.3048 54.9037 49.1342 56.9672 47.8901C58.009 47.2732 58.7575 46.2314 59.2026 44.8154C59.415 44.3502 59.5262 43.8344 59.5667 43.2376C59.5667 42.9949 59.4858 40.7091 56.6637 36.623C56.6334 36.5825 54.0237 32.8201 55.0453 27.0348C55.8039 25.7604 58.6159 21.3203 63.2991 16.5363C68.306 11.4286 76.58 4.83422 87.6558 2.245C86.7455 3.47893 84.0852 7.49424 83.7919 12.4603H83.9841C84.2976 7.21105 87.2815 3.04402 87.9694 2.14386L88.1312 1.93146L87.8682 1.99215C76.6103 4.55103 68.2149 11.2365 63.1575 16.4048C58.4338 21.2191 55.6219 25.6997 54.8633 26.9539V26.9842C53.8113 32.8201 56.4816 36.7039 56.5019 36.7342C59.2835 40.7597 59.3644 42.9848 59.3644 43.2275C59.334 43.7939 59.2228 44.2794 59.0205 44.7446C58.5855 46.1303 57.8674 47.1316 56.8761 47.7283C54.9138 48.9117 52.4964 48.1329 52.466 48.1228C50.3621 47.6777 48.6932 47.4451 48.6729 47.4451C34.6537 46.3427 28.8073 54.6059 28.1903 55.5567L28.1397 55.6376L28.2206 55.6881C38.9222 62.6568 54.398 67.9566 65.7368 71.2235H50.6959C47.4996 68.9984 40.4495 64.6291 25.0445 56.4164C24.6399 56.1939 24.3668 56.0523 24.3264 56.032C31.427 46.2415 41.4509 45.3009 45.0113 45.3009C45.1732 45.3009 45.3249 45.3009 45.4564 45.3009H46.0127L45.4867 45.1087C37.1318 41.8823 30.0919 43.6523 25.6615 45.7156C20.9986 47.8901 18.1057 50.8637 17.7618 51.2177H17.7517C17.7517 51.2177 17.7011 51.1671 17.6707 51.1368C6.514 42.2363 0.57655 33.4775 0.293332 33.0628C6.06894 30.6253 25.2367 25.5177 37.3746 24.6276H37.5061C49.4417 23.6971 61.6099 14.8371 61.7212 14.7461C71.5427 6.04792 79.2705 2.58888 84.0347 1.22347C88.6976 -0.121707 91.5399 0.212059 92.0558 0.292973C92.0861 0.292973 92.1165 0.292973 92.1165 0.292973C92.1165 0.292973 92.076 0.343543 92.0558 0.363772C92.0356 0.384 92.0153 0.404228 92.0052 0.424456C88.2627 4.54091 86.2599 8.57646 86.0172 12.4603H86.2094C86.4521 8.62703 88.4346 4.63194 92.1468 0.55594C92.167 0.535712 92.1873 0.515484 92.1974 0.495255C92.2176 0.475027 92.2378 0.444685 92.2581 0.424456L92.4907 0.171603L92.1367 0.0906896C92.1367 0.0906896 92.1165 0.0906896 92.0861 0.0906896C91.5602 0.00977649 88.6774 -0.334104 83.974 1.02119C79.1997 2.39671 71.4315 5.86587 61.5897 14.5843C61.4784 14.6753 49.3608 23.4948 37.4859 24.4152H37.3544C25.1962 25.3053 5.98803 30.4331 0.212413 32.8706L0 32.9617L0.131494 33.1538C0.384367 33.528 6.33193 42.3274 17.519 51.2683C17.5494 51.2986 17.5797 51.3289 17.6303 51.3593L17.782 51.4604L17.9034 51.3289C18.217 50.9952 21.0896 48.0419 25.7323 45.8774C30.0413 43.8849 36.8284 42.1554 44.89 45.0885C41.2183 45.1087 31.2348 46.1303 24.1443 55.9005L24.033 56.0624L24.1847 56.1736C24.1847 56.1736 24.2758 56.2242 24.9231 56.5681C40.3585 64.801 47.3985 69.1703 50.5847 71.3853L50.6049 71.4055H67.1023L66.4347 71.2134C55.0757 67.9768 39.2762 62.6366 28.3824 55.5668V55.5769Z" fill="#12102B"/>
<path d="M53.599 26.1445L53.5181 26.1243C49.7857 24.9713 38.4874 26.5895 38.3862 26.5997C14.0902 30.1295 5.48243 33.5279 4.00566 34.1752L3.88428 34.2257L3.9652 34.3269C4.33945 34.7719 13.0888 45.1591 17.8631 48.0214L17.9238 48.0619L17.9743 48.0113C18.3587 47.6775 21.8484 44.7343 27.1384 42.843C32.2971 41.0022 40.2474 39.8087 48.8653 44.5927H48.8855C49.8262 45.058 54.651 47.2528 56.7347 45.6851C57.6045 45.0378 57.8777 43.8038 57.5641 42.0339L57.5439 41.9833C57.2303 41.3764 56.1278 39.303 55.3489 38.413C55.2174 38.241 52.2133 34.0234 53.5788 26.2254L53.599 26.1445ZM55.2073 38.5344C55.9659 39.4042 57.0482 41.4371 57.382 42.0743C57.6855 43.7634 57.4326 44.9265 56.6335 45.5232C54.6004 47.0505 49.5531 44.6939 48.9664 44.4208C40.2979 39.5963 32.2768 40.7999 27.0879 42.6609C21.9596 44.5017 18.5003 47.3235 17.9137 47.8191C13.3417 45.0479 5.17899 35.4597 4.20795 34.3066C5.98818 33.5481 14.7376 30.2408 38.4267 26.8019C38.5278 26.7817 49.6846 25.2241 53.3866 26.2861C52.0413 34.1145 55.0758 38.3523 55.2073 38.5445V38.5344Z" fill="#12102B"/>
<path d="M56.6839 45.6042C54.4788 47.263 48.9662 44.5321 48.9156 44.5018C40.2775 39.6976 32.2867 40.9012 27.118 42.7419C21.8785 44.6232 18.3787 47.5259 17.9236 47.9305C13.2909 45.1592 4.94613 35.3283 4.0459 34.2562C5.08773 33.801 13.6045 30.2914 38.4062 26.6908C38.5276 26.6706 49.826 25.0725 53.4977 26.2053C52.0917 34.2056 55.2476 38.4131 55.288 38.4636C56.1478 39.4447 57.3818 41.8418 57.483 42.0339C57.7965 43.7635 57.5335 44.967 56.694 45.5941L56.6839 45.6042Z" fill="#A09F9F"/>
<path d="M41.2182 34.5602C37.5869 35.3693 34.7345 38.262 33.986 41.9233C33.9456 42.1256 33.6725 42.1256 33.632 41.9233C32.8734 38.2721 30.021 35.3795 26.3897 34.5602C26.1976 34.5198 26.1976 34.2467 26.3897 34.2062C30.021 33.387 32.8734 30.5044 33.632 26.8431C33.6725 26.6408 33.9456 26.6408 33.986 26.8431C34.7447 30.4943 37.5869 33.387 41.2182 34.2062C41.4104 34.2467 41.4104 34.5198 41.2182 34.5602Z" fill="#FFD627"/>
<path d="M65.5142 37.3513C65.5142 28.1373 71.5325 19.7324 84.7932 19.7324C88.9201 19.7324 92.8143 20.3494 96.4354 21.5024L94.4327 31.4446C92.3086 30.7872 88.7279 30.2511 85.6428 30.2511C80.8989 30.2511 78.5118 32.1425 78.5118 35.7229C78.5118 38.4942 80.0493 39.4651 83.4479 39.4651C86.4217 39.4651 88.8088 39.192 93.1683 38.1199L91.3982 46.9496C87.504 48.1835 83.1444 48.76 79.1794 48.76C69.9243 48.76 65.5344 45.0582 65.5344 37.3513H65.5142Z" fill="#A09F9F"/>
<path d="M105.225 39.6269L98.5596 20.4707H111.78L113.206 29.5734H113.358L118.365 20.4707H131.777L117.586 39.6269L115.927 48.0318H103.516L105.215 39.6269H105.225Z" fill="#A09F9F"/>
<path d="M133.982 20.4609H154.879C161.515 20.4609 164.175 22.1601 164.175 25.9731C164.175 30.3627 160.625 33.7206 155.112 34.1454L155.072 34.3375C160.008 34.6814 161.94 36.2693 161.94 39.5463C161.94 45.4024 156.892 48.0321 150.105 48.0321H128.479L133.992 20.4711L133.982 20.4609ZM150.257 39.0406C150.257 37.8876 149.488 37.3819 147.829 37.3819H142.59L141.74 41.5793H146.747C148.871 41.5793 150.257 40.7701 150.257 39.0305V39.0406ZM151.794 29.1692C151.794 28.0162 151.096 27.5105 149.478 27.5105H144.542L143.692 31.7079H148.507C150.55 31.7079 151.784 30.7066 151.784 29.1591L151.794 29.1692Z" fill="#A09F9F"/>
<path d="M165.945 37.8472C165.945 28.168 172.581 19.7227 185.953 19.7227C195.976 19.7227 200.953 23.1918 200.953 30.828C200.953 39.9307 194.51 48.7907 180.784 48.7907C170.8 48.7907 165.945 45.362 165.945 37.8472ZM187.925 32.6789C187.925 30.3223 186.772 29.1288 184.456 29.1288C179.833 29.1288 178.71 34.2162 178.71 36.9572C178.71 39.4655 179.863 40.6589 182.139 40.6589C186.418 40.6589 187.925 35.3794 187.925 32.6789Z" fill="#A09F9F"/>
<path d="M207.507 20.4609H227.899C235.182 20.4609 238.044 22.5445 238.044 27.0554C238.044 31.2932 235.04 35.9255 227.869 36.4615L227.828 36.502L234.767 48.0321H221.001L216.216 38.8181H216.064L214.213 48.0321H201.995L207.507 20.4711V20.4609ZM225.239 29.9885C225.239 28.4815 224.278 27.905 221.81 27.905H218.259L217.137 33.5385H220.373C223.61 33.5385 225.229 32.2237 225.229 29.9885H225.239Z" fill="#A09F9F"/>
<path d="M239.197 37.503C239.197 29.0981 245.054 19.7324 259.164 19.7324C263.675 19.7324 267.913 20.3089 272 21.5024L270.108 30.8276C266.791 30.1298 263.554 29.7454 260.621 29.7454C254.177 29.7454 251.517 33.4472 251.517 37.3816C251.517 40.0416 253.216 41.3868 256.494 41.3868H257.07L258.496 34.2563H269.754L267.327 46.2821C262.856 47.9408 258.152 48.7904 253.065 48.7904C243.547 48.7904 239.187 45.4729 239.187 37.4929L239.197 37.503Z" fill="#A09F9F"/>
</g>
<defs>
<clipPath id="clip0_317_415">
<rect width="272" height="71.4059" fill="white"/>
</clipPath>
</defs>
</svg>
