<svg width="80" height="63" viewBox="0 0 80 63" fill="none" xmlns="http://www.w3.org/2000/svg">
<g clip-path="url(#clip0_317_442)">
<path d="M42.0741 41.9406C42.0741 41.9406 43.5265 42.1458 45.3462 42.5384C45.3637 42.5384 47.481 43.2523 49.222 42.1815C50.1056 41.6461 50.7443 40.7448 51.1205 39.5044C51.2955 39.1029 51.4005 38.6567 51.4267 38.1481C51.4267 38.041 51.4267 36.0332 48.9333 32.3656C48.907 32.3299 46.6236 28.939 47.5159 23.8258C48.0934 22.8353 50.5081 18.8644 54.6726 14.5365C59.047 9.97654 66.2911 4.09595 76.0024 1.84722C75.3637 2.68603 72.809 6.37144 72.5378 10.9938H74.4801C74.69 7.58504 76.4048 4.04241 79.6332 0.428383C79.6682 0.383765 79.7032 0.356995 79.7382 0.312377L79.8432 0.205295L79.6944 0.169601C79.6944 0.169601 79.6769 0.169601 79.6419 0.169601C79.2482 0.107136 76.7985 -0.223034 72.669 0.990564C68.5396 2.20416 61.8292 5.27385 53.3427 12.9481C53.2377 13.0284 42.7478 20.8275 32.4503 21.6396H32.3366C21.8554 22.4248 5.24124 26.9401 0.236863 29.0907L0.140625 29.1353L0.193118 29.2156C0.245612 29.2959 5.37247 37.1576 15.2237 45.1887C15.25 45.2155 15.2762 45.2333 15.3025 45.2601L15.3725 45.3047L15.4162 45.2512C15.4162 45.2512 17.9709 42.4403 22.2229 40.4146C26.0636 38.5942 32.1091 37.0505 39.3095 39.8882C37.0173 39.8346 27.4985 40.1916 20.9543 49.3917L20.9105 49.4631L20.9805 49.5077C21.0768 49.5791 36.9823 58.0832 43.8152 62.9287H57.4547C47.3147 59.9839 33.7977 55.2812 24.4451 49.0704C24.9438 48.2941 29.9831 40.9857 42.0916 41.9584L42.0741 41.9406ZM23.4565 37.7197C18.9245 39.3795 15.8974 41.9406 15.5037 42.2975C11.4967 39.8525 4.27886 31.1788 3.5002 30.2329C4.40134 29.8314 11.7679 26.7349 33.2202 23.5581C33.3252 23.5403 43.0978 22.1304 46.2736 23.1298C45.0575 30.1883 47.7872 33.9005 47.8222 33.9451C48.5658 34.8107 49.6332 36.9255 49.7207 37.0951C49.9919 38.621 49.7644 39.6829 49.0383 40.2362C47.131 41.6996 42.3628 39.2903 42.3191 39.2635C34.8475 35.0248 27.9359 36.0867 23.4652 37.7108L23.4565 37.7197Z" fill="#12102B"/>
<path d="M24.5494 49.035C25.2843 47.9284 30.3237 41.093 42.0647 42.03C42.0735 42.03 43.4733 42.2263 45.3193 42.6189C45.3368 42.6189 47.4891 43.3507 49.2738 42.2531C50.175 41.7087 50.8224 40.7896 51.2073 39.5403C51.3911 39.1298 51.4873 38.6748 51.5223 38.1483C51.5223 37.9341 51.4523 35.9174 49.0114 32.3123C48.9851 32.2766 46.7279 28.957 47.6115 23.8528C48.2677 22.7284 50.6999 18.811 54.7507 14.5902C59.0814 10.0838 66.238 4.26569 75.818 1.98127C75.0306 3.06994 72.7297 6.61257 72.4759 10.994H72.6422C72.9134 6.36271 75.4943 2.68622 76.0892 1.89203L76.2292 1.70464L76.0018 1.75818C66.2642 4.01583 59.0026 9.91427 54.6282 14.4742C50.5424 18.7218 48.1102 22.6749 47.4541 23.7814V23.8082C46.5442 28.957 48.8539 32.3837 48.8714 32.4104C51.2773 35.962 51.3473 37.9252 51.3473 38.1393C51.3211 38.6391 51.2248 39.0674 51.0499 39.4779C50.6737 40.7004 50.0525 41.5838 49.1951 42.1103C47.4978 43.1544 45.4068 42.4672 45.3806 42.4583C43.5608 42.0657 42.1172 41.8604 42.0997 41.8604C29.9738 40.8878 24.9169 48.1783 24.3832 49.0171L24.3395 49.0885L24.4094 49.1331C33.6658 55.2814 47.0516 59.9573 56.8591 62.8396H43.8495C41.0849 60.8764 34.9869 57.0215 21.6623 49.7756C21.3123 49.5793 21.0761 49.4544 21.0411 49.4365C27.1829 40.7985 35.853 39.9687 38.9326 39.9687C39.0726 39.9687 39.2038 39.9687 39.3176 39.9687H39.7988L39.3438 39.7991C32.1172 36.9525 26.028 38.5141 22.196 40.3345C18.1627 42.2531 15.6605 44.8766 15.3631 45.1889H15.3543C15.3543 45.1889 15.3106 45.1443 15.2843 45.1175C5.6343 37.2648 0.498688 29.5371 0.253718 29.1712C5.24934 27.0206 21.8285 22.5143 32.3272 21.729H32.4409C42.7647 20.908 53.2896 13.091 53.3858 13.0107C61.881 5.33651 68.5652 2.28467 72.6859 1.07999C76.7192 -0.106835 79.1776 0.187641 79.6238 0.259029C79.65 0.259029 79.6763 0.259029 79.6763 0.259029C79.6763 0.259029 79.6413 0.303647 79.6238 0.321494C79.6063 0.339341 79.5888 0.357188 79.58 0.375035C76.343 4.0069 74.6107 7.56739 74.4007 10.994H74.5669C74.7769 7.612 76.4917 4.08722 79.7025 0.49104C79.72 0.473193 79.7375 0.455346 79.7463 0.437499C79.7638 0.419652 79.7813 0.392882 79.7988 0.375035L80 0.151947L79.6938 0.0805589C79.6938 0.0805589 79.6763 0.0805589 79.65 0.0805589C79.1951 0.00917076 76.7017 -0.294229 72.6334 0.901522C68.5039 2.11512 61.7848 5.17588 53.2721 12.868C53.1758 12.9483 42.6947 20.7296 32.4234 21.5416H32.3097C21.8023 22.3358 5.1881 26.86 0.183727 29.0106L0 29.0909L0.113736 29.2604C0.332458 29.5906 5.47681 37.3541 15.1531 45.2425C15.1794 45.2692 15.2056 45.296 15.2493 45.3228L15.3806 45.412L15.4856 45.296C15.7568 45.0015 18.2415 42.3959 22.2572 40.4862C25.9843 38.7283 31.8548 37.2024 38.8276 39.7902C35.6518 39.808 27.0166 40.7093 20.8836 49.3294L20.7874 49.4722L20.9186 49.5704C20.9186 49.5704 20.9974 49.615 21.5573 49.9184C34.9081 57.1821 40.9974 61.0371 43.7533 62.9913L43.7708 63.0092H58.0402L57.4628 62.8396C47.6378 59.9841 33.972 55.2725 24.5494 49.035Z" fill="#12102B"/>
<path d="M46.3602 23.0672L46.2903 23.0494C43.0619 22.0321 33.2894 23.4599 33.2019 23.4688C12.187 26.5831 4.7417 29.5814 3.46436 30.1525L3.35938 30.1971L3.42937 30.2864C3.75308 30.679 11.3209 39.8435 15.4504 42.3688L15.5029 42.4045L15.5466 42.3599C15.8791 42.0654 18.8974 39.4687 23.4731 37.8C27.935 36.1759 34.8117 35.1229 42.2658 39.3437H42.2833C43.0969 39.7542 47.2701 41.6906 49.0724 40.3075C49.8248 39.7364 50.061 38.6477 49.7898 37.0861L49.7723 37.0415C49.5011 36.5061 48.5475 34.6767 47.8738 33.8915C47.7601 33.7398 45.1616 30.0187 46.3427 23.1386L46.3602 23.0672ZM47.7426 33.9985C48.3987 34.766 49.3349 36.5596 49.6236 37.1218C49.8861 38.612 49.6673 39.6382 48.9762 40.1647C47.2176 41.5121 42.8519 39.433 42.3445 39.192C34.8467 34.9355 27.9088 35.9974 23.4206 37.6393C18.9849 39.2634 15.9928 41.7531 15.4854 42.1903C11.5309 39.7453 4.47049 31.2858 3.63059 30.2685C5.1704 29.5993 12.7382 26.6813 33.2281 23.6473C33.3156 23.6294 42.9657 22.2552 46.1678 23.1922C45.0042 30.099 47.6288 33.8379 47.7426 34.0075V33.9985Z" fill="#12102B"/>
<path d="M49.0293 40.2362C47.122 41.6997 42.3539 39.2904 42.3101 39.2636C34.8386 35.0249 27.9269 36.0868 23.4563 37.7109C18.9243 39.3707 15.8972 41.9317 15.5035 42.2887C11.4965 39.8436 4.27865 31.17 3.5 30.2241C4.40114 29.8225 11.7677 26.726 33.22 23.5493C33.325 23.5314 43.0975 22.1215 46.2734 23.1209C45.0573 30.1794 47.787 33.8916 47.822 33.9362C48.5656 34.8018 49.633 36.9167 49.7205 37.0862C49.9917 38.6122 49.7642 39.6741 49.0381 40.2273L49.0293 40.2362Z" fill="#A09F9F"/>
<path d="M35.6517 30.4916C32.5109 31.2054 30.0437 33.7576 29.3963 36.9879C29.3613 37.1664 29.1251 37.1664 29.0901 36.9879C28.4339 33.7665 25.9667 31.2144 22.8258 30.4916C22.6596 30.4559 22.6596 30.2149 22.8258 30.1792C25.9667 29.4564 28.4339 26.9132 29.0901 23.6829C29.1251 23.5045 29.3613 23.5045 29.3963 23.6829C30.0524 26.9043 32.5109 29.4564 35.6517 30.1792C35.818 30.2149 35.818 30.4559 35.6517 30.4916Z" fill="#FFD627"/>
</g>
<defs>
<clipPath id="clip0_317_442">
<rect width="80" height="63" fill="white"/>
</clipPath>
</defs>
</svg>
